<?xml version="1.0" standalone="no"?>
<!DOCTYPE svg PUBLIC "-//W3C//DTD SVG 20010904//EN"
 "http://www.w3.org/TR/2001/REC-SVG-20010904/DTD/svg10.dtd">
<svg version="1.0" xmlns="http://www.w3.org/2000/svg"
 width="280.000000pt" height="280.000000pt" viewBox="0 0 280.000000 280.000000"
 preserveAspectRatio="xMidYMid meet">
<metadata>
Created by potrace 1.14, written by Peter Selinger 2001-2017
</metadata>
<g transform="translate(0.000000,280.000000) scale(0.100000,-0.100000)"
fill="#000000" stroke="none">
<path d="M1258 2795 c-2 -3 -24 -7 -49 -9 -179 -20 -408 -104 -569 -210 -281
-185 -491 -465 -582 -776 -41 -143 -53 -228 -52 -400 1 -204 18 -310 80 -482
41 -113 156 -326 193 -358 4 -3 19 -22 34 -43 77 -102 275 -270 393 -333 27
-14 54 -29 59 -33 6 -4 42 -20 80 -36 39 -15 79 -31 90 -36 34 -15 207 -58
265 -65 68 -9 329 -10 391 -2 64 9 175 35 234 55 28 10 52 17 55 18 10 0 145
59 150 64 3 3 23 15 45 26 161 79 359 258 481 435 110 159 205 402 231 590 15
111 9 362 -12 469 -6 32 -45 173 -52 191 -3 8 -7 20 -8 27 -9 38 -122 251
-170 318 -61 86 -63 88 -159 185 -197 200 -433 325 -726 386 -68 15 -391 29
-402 19z"/>
</g>
</svg>
